<svg width="362.73401" height="413" xmlns="http://www.w3.org/2000/svg">

 <metadata id="metadata3481">image/svg+xml</metadata>
 <g>
  <title>background</title>
  <rect fill="none" id="canvas_background" height="415" width="364.73401" y="-1" x="-1"/>
 </g>
 <g>
  <title>Layer 1</title>
  <g id="layer1">
   <g id="g3013">
    <polygon fill="#264de4" points="362.7340087890625,0.6199951171875 329.6880187988281,370.8190002441406 181.14500427246094,412 33.01100158691406,370.87701416015625 0.00000762939453125,0.6199951171875 " id="polygon2989"/>
    <polygon fill="#2965f1" points="301.3970031738281,347.2460021972656 329.6369934082031,30.893997192382812 181.36700439453125,30.893997192382812 181.36700439453125,380.52301025390625 " id="polygon2991"/>
    <polygon fill="#ebebeb" points="75.677001953125,168.21701049804688 79.74700927734375,213.62701416015625 181.36700439453125,213.62701416015625 181.36700439453125,168.21701049804688 " id="polygon2993"/>
    <polygon fill="#ebebeb" points="181.36700439453125,76.30499267578125 181.2100067138672,76.30499267578125 67.49900817871094,76.30499267578125 71.62699890136719,121.71600341796875 181.36700439453125,121.71600341796875 " id="polygon2995"/>
    <polygon fill="#ebebeb" points="181.36700439453125,333.39898681640625 181.36700439453125,286.15301513671875 181.16799926757812,286.20599365234375 130.59400939941406,272.54998779296875 127.36100769042969,236.3330078125 102.7860107421875,236.3330078125 81.7760009765625,236.3330078125 88.13800048828125,307.6340026855469 181.1580047607422,333.4570007324219 " id="polygon2997"/>
    <polygon fill="#ffffff" points="237.12799072265625,213.62701416015625 231.85699462890625,272.52099609375 181.2100067138672,286.1910095214844 181.2100067138672,333.43499755859375 274.30401611328125,307.6340026855469 274.98699951171875,299.9620056152344 285.6579895019531,180.4110107421875 286.7659912109375,168.21701049804688 294.9639892578125,76.30499267578125 181.2100067138672,76.30499267578125 181.2100067138672,121.71600341796875 245.197998046875,121.71600341796875 241.06600952148438,168.21701049804688 181.2100067138672,168.21701049804688 181.2100067138672,213.62701416015625 " id="polygon3005"/>
   </g>
  </g>
 </g>
</svg>